<?xml version="1.0" standalone="no"?>
<!DOCTYPE svg PUBLIC "-//W3C//DTD SVG 20010904//EN"
 "http://www.w3.org/TR/2001/REC-SVG-20010904/DTD/svg10.dtd">
<svg version="1.0" xmlns="http://www.w3.org/2000/svg"
 width="400.000000pt" height="214.000000pt" viewBox="0 0 400.000000 214.000000"
 preserveAspectRatio="xMidYMid meet">

<g transform="translate(0.000000,214.000000) scale(0.100000,-0.100000)"
fill="#000000" stroke="none">
<path d="M768 1387 c-98 -56 -178 -106 -178 -110 0 -4 26 -53 59 -108 l58
-100 108 188 c60 103 115 198 123 211 8 12 13 22 11 21 -2 0 -84 -46 -181
-102z"/>
<path d="M1220 1069 c-63 -110 -116 -204 -118 -209 -2 -6 44 -10 117 -10 l121
0 0 210 c0 116 -1 210 -2 210 -2 0 -55 -90 -118 -201z"/>
<path d="M1550 1060 l0 -150 30 0 30 0 0 65 0 65 60 0 60 0 0 -65 c0 -63 1
-65 25 -65 l25 0 0 150 0 150 -25 0 c-24 0 -25 -3 -25 -60 l0 -60 -60 0 -60 0
0 60 0 60 -30 0 -30 0 0 -150z"/>
<path d="M1840 1060 l0 -150 100 0 100 0 0 25 c0 24 -2 25 -70 25 l-70 0 0 40
0 40 65 0 c63 0 65 1 65 25 0 24 -2 25 -65 25 l-65 0 0 35 0 35 70 0 c68 0 70
1 70 25 l0 25 -100 0 -100 0 0 -150z"/>
<path d="M2106 1153 c20 -32 42 -66 47 -75 9 -13 1 -33 -36 -92 l-47 -76 33 0
c28 0 35 6 60 50 16 28 30 50 33 50 2 0 18 -22 35 -50 26 -42 36 -50 60 -50
16 0 29 2 29 5 0 3 -20 37 -44 76 l-45 71 45 69 c24 38 44 71 44 74 0 3 -13 5
-29 5 -23 0 -34 -9 -60 -52 l-33 -52 -31 51 c-28 46 -36 52 -65 53 l-33 0 37
-57z"/>
<path d="M2430 1208 c0 -2 -22 -66 -50 -143 -27 -77 -50 -143 -50 -147 0 -5
13 -8 28 -8 22 0 30 7 39 30 11 28 14 30 66 30 52 0 56 -2 66 -30 8 -24 16
-30 39 -30 l30 0 -40 113 c-22 61 -46 128 -52 147 -11 29 -19 36 -44 38 -18 2
-32 2 -32 0z m52 -138 l16 -50 -38 0 -38 0 16 50 c9 28 19 50 22 50 3 0 13
-22 22 -50z"/>
<path d="M2662 1194 c-37 -25 -52 -67 -52 -143 0 -64 3 -73 30 -105 37 -42 84
-53 136 -31 26 10 41 12 48 5 21 -21 26 -8 26 70 l0 80 -60 0 c-53 0 -60 -2
-60 -20 0 -15 7 -20 29 -20 35 0 41 -8 30 -37 -22 -58 -99 -49 -120 14 -14 44
-6 108 17 134 23 26 80 26 96 -1 16 -25 68 -28 68 -4 0 8 -13 29 -29 45 -25
25 -37 29 -83 29 -32 0 -62 -6 -76 -16z"/>
<path d="M2949 1195 c-68 -37 -77 -201 -13 -260 54 -50 145 -37 184 27 14 24
20 50 20 96 0 104 -38 152 -120 152 -25 -1 -57 -7 -71 -15z m117 -56 c14 -15
19 -36 19 -81 0 -54 -3 -63 -29 -84 -19 -17 -35 -23 -49 -18 -43 12 -52 31
-52 105 0 58 3 73 19 85 28 20 70 17 92 -7z"/>
<path d="M3180 1060 l0 -150 30 0 29 0 3 95 3 94 59 -94 c52 -84 62 -95 87
-95 l29 0 0 150 0 150 -25 0 c-25 0 -25 0 -25 -97 -1 -113 1 -114 -82 21 -42
68 -51 76 -78 76 l-30 0 0 -150z"/>
<path d="M868 1007 c-48 -29 -88 -55 -88 -58 0 -4 12 -27 26 -53 l26 -46 64 0
64 0 0 105 c0 58 -1 105 -2 104 -2 0 -42 -24 -90 -52z"/>
<path d="M1566 825 c-23 -24 -22 -116 2 -138 21 -19 67 -23 78 -6 4 8 9 7 15
-2 6 -9 9 3 9 34 0 47 0 47 -32 46 -28 -1 -30 -2 -10 -7 25 -7 27 -12 19 -42
-8 -29 -52 -26 -73 5 -23 36 -11 92 23 108 22 10 28 8 44 -12 21 -26 40 -20
23 7 -15 23 -77 28 -98 7z"/>
<path d="M1702 758 l3 -83 53 -3 c31 -2 52 1 52 7 0 6 -20 11 -45 11 -43 0
-45 1 -45 30 0 28 2 30 40 30 22 0 40 5 40 10 0 6 -18 10 -40 10 -38 0 -40 2
-40 29 0 28 2 30 48 34 46 3 46 3 -11 5 l-58 2 3 -82z"/>
<path d="M1846 824 c-11 -10 -16 -34 -16 -69 0 -44 4 -57 22 -69 54 -38 103
-3 103 74 0 26 -6 54 -14 63 -17 21 -75 22 -95 1z m78 -16 c32 -45 14 -118
-28 -118 -33 0 -51 26 -50 73 2 62 48 88 78 45z"/>
<path d="M1992 828 c-31 -31 -3 -78 46 -78 29 0 48 -26 32 -45 -18 -21 -58
-19 -72 5 -14 21 -28 27 -28 10 0 -20 41 -50 69 -50 27 0 61 29 61 52 0 17
-41 48 -64 48 -27 0 -48 20 -38 36 16 23 45 25 69 3 17 -17 23 -19 23 -8 0 8
-5 20 -12 27 -16 16 -70 16 -86 0z"/>
<path d="M2120 761 c0 -44 5 -83 10 -86 6 -4 10 8 10 29 0 34 2 36 34 36 40 0
66 22 66 54 0 34 -19 46 -72 46 l-48 0 0 -79z m75 59 c20 -7 26 -16 23 -33 -2
-18 -10 -23 -40 -25 -36 -3 -38 -2 -38 26 0 44 10 49 55 32z"/>
<path d="M2280 837 c0 -3 -13 -42 -30 -86 -16 -45 -26 -81 -21 -81 4 0 13 11
19 25 9 19 19 25 45 25 27 0 36 -6 47 -27 7 -16 14 -23 17 -17 6 16 -50 157
-65 162 -6 2 -12 1 -12 -1z m40 -98 c0 -5 -11 -9 -25 -9 -28 0 -31 15 -13 55
l12 26 13 -32 c7 -17 13 -35 13 -40z"/>
<path d="M2365 831 c30 -6 30 -7 35 -86 l6 -80 4 80 c5 74 7 80 30 86 16 4 1
7 -40 7 -44 0 -55 -2 -35 -7z"/>
<path d="M2480 761 c0 -44 5 -83 10 -86 6 -4 10 25 10 79 0 51 -4 86 -10 86
-6 0 -10 -33 -10 -79z"/>
<path d="M2572 823 c-21 -42 -54 -144 -49 -150 4 -3 12 6 18 21 17 37 74 38
91 1 13 -28 34 -35 23 -7 -4 9 -18 47 -32 85 -26 69 -36 79 -51 50z m38 -75
c0 -13 -8 -18 -26 -18 -20 0 -25 4 -20 16 3 9 9 27 12 41 l7 26 13 -24 c7 -13
13 -32 14 -41z"/>
<path d="M2680 755 l0 -85 50 0 c28 0 50 5 50 10 0 6 -18 10 -40 10 l-40 0 0
75 c0 43 -4 75 -10 75 -6 0 -10 -35 -10 -85z"/>
</g>
</svg>
